<svg xmlns="http://www.w3.org/2000/svg" width="18" height="18" viewBox="0 0 18 18">
  <path fill="#FFF" d="M6.32479824,11.25 L1.28617724,11.25 C1.05132709,11.25 0.86103216,11.440358 0.86103216,11.6751593 L0.86103216,12.8089177 C0.86103216,13.043719 1.05132709,13.234077 1.28617724,13.234077 L3.36295422,13.234077 L0.124539163,16.4724874 C0.0448386338,16.5521907 0,16.6603512 0,16.7731035 C0,16.8858557 0.0448386338,16.9940163 0.124539163,17.0737195 L0.9262494,17.8754567 C1.0092944,17.9585044 1.11807486,18 1.226912,18 C1.33569245,18 1.44452959,17.9584478 1.5275746,17.8754567 L4.76598965,14.6370462 L4.76598965,16.7139496 C4.76598965,16.948751 4.95628459,17.139109 5.19113473,17.139109 L6.32485493,17.139109 C6.55970506,17.139109 6.75,16.948751 6.75,16.7139496 L6.75,11.6751593 C6.74994331,11.440358 6.55959169,11.25 6.32479824,11.25 Z M17.0738251,0.124531529 C16.9077281,-0.0415105095 16.6385717,-0.0415105095 16.4724179,0.124531529 L13.2340937,3.36288982 L13.2340937,1.28594713 C13.2340937,1.05114135 13.0437907,0.86077974 12.8089307,0.86077974 L11.6751629,0.86077974 C11.4403029,0.86077974 11.25,1.05114135 11.25,1.28594713 L11.25,6.32483261 C11.25,6.55963839 11.4403029,6.75 11.6751629,6.75 L16.7139955,6.75 C16.9488555,6.75 17.1391584,6.55963839 17.1391584,6.32483261 L17.1391584,5.1910529 C17.1391584,4.95624712 16.9488555,4.76588551 16.7139955,4.76588551 L14.6371313,4.76588551 L17.8755123,1.52752723 C17.9552162,1.44782251 18,1.33965993 18,1.22690554 C18,1.11415114 17.9552162,1.00598856 17.8755123,0.926283848 L17.0738251,0.124531529 Z"/>
</svg>
