<svg xmlns="http://www.w3.org/2000/svg" width="18" height="18" viewBox="0 0 18 18">
  <path fill="#FFF" d="M17.5747982,4.35776224e-14 L12.5361772,0 C12.3013271,0 12.1110322,0.190358016 12.1110322,0.425159356 L12.1110322,1.55891764 C12.1110322,1.79371898 12.3013271,1.98407699 12.5361772,1.98407699 L14.6129542,1.98407699 L11.3745392,5.22248746 C11.2948386,5.30219067 11.25,5.41035122 11.25,5.52310348 C11.25,5.63585573 11.2948386,5.74401628 11.3745392,5.82371948 L12.1762494,6.62545665 C12.2592944,6.70850445 12.3680749,6.75 12.476912,6.75 C12.5856925,6.75 12.6945296,6.70844776 12.7775746,6.62545665 L16.0159897,3.38704618 L16.0159897,5.46394962 C16.0159897,5.69875097 16.2062846,5.88910898 16.4411347,5.88910898 L17.5748549,5.88910898 C17.809705,5.88910898 18,5.69875097 18,5.46394962 L18,0.425159356 C17.9999433,0.190358016 17.8095917,4.35776224e-14 17.5747982,4.35776224e-14 Z M3.38710287,1.98407699 L5.46394962,1.98407699 C5.69880765,1.98407699 5.88910898,1.79371898 5.88910898,1.55891764 L5.88910898,0.425159356 C5.88910898,0.190358016 5.69880765,0 5.46394962,0 L0.425159356,4.35776224e-14 C0.190301328,4.35776224e-14 0,0.190358016 0,0.425159356 L0,5.46394962 C0,5.69875097 0.190301328,5.88910898 0.425159356,5.88910898 L1.55891764,5.88910898 C1.79377567,5.88910898 1.98407699,5.69875097 1.98407699,5.46394962 L1.98407699,3.38710287 L5.22237409,6.62545665 C5.30542189,6.70844776 5.41426268,6.75 5.52310348,6.75 C5.63188758,6.75 5.74072838,6.70844776 5.82383286,6.62545665 L6.62551334,5.82371948 C6.70521655,5.74401628 6.75,5.63585573 6.75,5.52310348 C6.75,5.41035122 6.70521655,5.30219067 6.62551334,5.22248746 L3.38710287,1.98407699 Z M5.82382508,11.3745315 C5.6577281,11.2084895 5.38857162,11.2084895 5.22241795,11.3745315 L1.98409366,14.6128898 L1.98409366,12.5359471 C1.98409366,12.3011413 1.79379074,12.1107797 1.55893073,12.1107797 L0.425162927,12.1107797 C0.190302926,12.1107797 0,12.3011413 0,12.5359471 L0,17.5748326 C0,17.8096384 0.190302926,18 0.425162927,18 L5.46399551,18 C5.69885551,18 5.88915844,17.8096384 5.88915844,17.5748326 L5.88915844,16.4410529 C5.88915844,16.2062471 5.69885551,16.0158855 5.46399551,16.0158855 L3.38713132,16.0158855 L6.62551229,12.7775272 C6.70521617,12.6978225 6.75,12.5896599 6.75,12.4769055 C6.75,12.3641512 6.70521617,12.2559886 6.62551229,12.1762838 L5.82382508,11.3745315 Z M17.5748513,12.1107797 L16.4411216,12.1107797 C16.2062696,12.1107797 16.015973,12.3011413 16.015973,12.5359471 L16.015973,14.6130032 L12.7774741,11.3745315 C12.6114393,11.2084895 12.3422919,11.2084895 12.1762572,11.3745315 L11.3745402,12.1762838 C11.294839,12.2559886 11.25,12.3641512 11.25,12.4769055 C11.25,12.5896599 11.294839,12.6978225 11.3745969,12.7775272 L14.6129824,16.0158855 L12.536188,16.0158855 C12.3013359,16.0158855 12.1110394,16.2062471 12.1110394,16.4410529 L12.1110394,17.5748326 C12.1110394,17.8096384 12.3013359,18 12.536188,18 L17.5748513,18 C17.8097035,18 18,17.8096384 18,17.5748326 L18,12.5359471 C18,12.3011413 17.8096468,12.1107797 17.5748513,12.1107797 Z"/>
</svg>
