<svg xmlns="http://www.w3.org/2000/svg" width="18" height="16" viewBox="0 0 18 16">
  <path fill="#933EC5" fill-rule="evenodd" d="M499.108776,8286.33517 C499.036215,8285.96913 499,8285.59747 499,8285.22367 C499.00079,8282.17881 499.00079,8279.13487 499,8276.09092 C499,8275.82914 499.025811,8275.573 499.079014,8275.32065 C499.312107,8274.2262 500.031664,8273.51833 501.010916,8273.43356 C501.758128,8273.36933 502.505999,8273.41773 503.253739,8273.40282 C503.372392,8273.40008 503.421512,8273.45213 503.410187,8273.58819 C503.405578,8273.6544 503.409397,8273.72243 503.409397,8273.7894 C503.409397,8276.03613 503.407158,8278.28378 503.410977,8280.53036 C503.412821,8281.16472 503.446402,8281.79527 503.5802,8282.41563 C503.996079,8284.34747 505.035776,8285.53233 506.725103,8285.9495 C507.634295,8286.17399 508.542565,8286.1647 509.442012,8285.90673 C511.046794,8285.44664 512.024333,8284.25813 512.41585,8282.4138 C512.540034,8281.83256 512.577829,8281.24112 512.577829,8280.64314 C512.575459,8278.34801 512.576249,8276.05303 512.577829,8273.75789 C512.577829,8273.38897 512.518173,8273.39916 512.884142,8273.40388 C513.58197,8273.41225 514.280062,8273.37131 514.9771,8273.43097 C515.910524,8273.51103 516.62455,8274.16578 516.881742,8275.17272 C516.961415,8275.48655 517,8275.80981 517,8276.13856 C517,8276.93592 517,8277.73237 517,8278.52958 C517,8280.69976 516.99921,8282.87009 516.99921,8285.04042 C516.99921,8285.52289 516.959834,8285.99881 516.856721,8286.46636 C516.566606,8287.77419 515.83862,8288.56394 514.709505,8288.87138 C514.351702,8288.96833 513.989026,8288.99999 513.621477,8288.99999 C511.743701,8288.99816 509.865661,8288.99907 507.987884,8288.99907 C506.110108,8288.99907 504.2322,8288.99816 502.354555,8288.99999 C501.945129,8289.0009 501.542814,8288.95341 501.147215,8288.82953 C500.026002,8288.47932 499.364125,8287.62702 499.108776,8286.33517 Z M505.590873,8280.713 C505.577967,8280.42976 505.580338,8280.14485 505.580338,8279.86039 C505.580338,8277.71532 505.580338,8275.57102 505.580338,8273.42686 C505.580338,8273.36827 505.579548,8273.30952 505.580338,8273.25092 C505.583367,8273.0033 505.583367,8273.00041 505.809216,8273.00041 C507.020506,8272.99949 508.232718,8273.00041 509.44414,8273.00041 C509.69804,8273.00041 509.952598,8272.99949 510.206497,8273.00132 C510.42247,8273.00315 510.42484,8273.00497 510.42484,8273.26492 C510.42484,8274.49909 510.42484,8275.73235 510.42484,8276.96651 L510.42405,8276.96651 C510.42405,8278.11225 510.42405,8279.25799 510.42405,8280.40358 C510.42405,8280.969 510.338715,8281.51584 510.119318,8282.02433 C509.686714,8283.02838 508.979931,8283.55757 508.007923,8283.56031 C507.024589,8283.5632 506.312142,8283.02944 505.876115,8282.01322 C505.70123,8281.60533 505.6101,8281.16746 505.590873,8280.713 Z" transform="translate(-499 -8273)"/>
</svg>
