<svg xmlns="http://www.w3.org/2000/svg" width="18" height="18" viewBox="0 0 18 18">
  <path fill="#107B13" d="M3.9825,1.525875 L3.9825,1.525875 C4.0215,1.486875 4.0995,1.447875 4.138875,1.4085 C5.544375,0.469875 7.18425,0 8.9805,0 C10.659375,0 12.26025,0.469875 13.58775,1.291125 C13.705125,1.330125 13.9395,1.525875 14.0955,1.68225 L14.0955,1.68225 C12.807,0.23475 8.9805,3.325875 8.9805,3.325875 C7.653,2.3085 6.4425,1.60425 5.544375,1.3695 C4.763625,1.17375 4.255875,1.3305 3.9825,1.525875 Z M15.579375,2.89575 C15.540375,2.85675 15.501375,2.81775 15.462,2.778375 C15.149625,2.42625 14.719875,2.347875 14.3685,2.347875 C14.0565,2.46525 12.494625,3.01275 10.620375,4.77375 C10.620375,4.77375 12.728625,6.847875 14.0565,8.961 C15.345,11.07375 16.12575,12.756375 15.657375,15.06525 C17.101875,13.461 18,11.347875 18,9 C17.961,6.652125 17.06325,4.5 15.579375,2.89575 Z M12.33825,9.861 C11.7525,9.19575 10.89375,8.29575 9.76125,7.160625 C9.52725,6.92625 9.253875,6.652125 8.9805,6.378 C8.9805,6.378 8.55075,6.8085 8.043375,7.356375 L8.043375,7.356375 C7.34025,8.060625 6.4425,8.961 5.97375,9.5085 C5.075625,10.447875 2.576625,13.421625 2.420625,15.10425 C2.420625,15.10425 1.873875,13.77375 3.084375,10.721625 C3.9045,8.725875 6.3255,5.752125 7.34025,4.77375 C7.34025,4.77375 6.403125,3.756375 5.231625,3.052125 L5.231625,3.052125 C5.231625,3.052125 5.231625,3.052125 5.192625,3.013125 C4.645875,2.661 4.021125,2.426625 3.435375,2.38725 C2.810625,2.38725 2.42025,2.85675 2.42025,2.85675 C0.937125,4.461 0,6.613125 0,9 C0,13.9695 4.021875,18 8.9805,18 C11.596875,18 13.978125,16.864875 15.618375,15.06525 C15.618375,15.06525 15.423,13.8915 14.212875,12.1695 C13.9395,11.778 12.924,10.52625 12.33825,9.861 Z"/>
</svg>
