<svg xmlns="http://www.w3.org/2000/svg" width="18" height="18" viewBox="0 0 18 18">
  <path fill="#E80000" fill-rule="evenodd" d="M5,0 L13,0 L13,0 C15.7614237,-5.07265313e-16 18,2.23857625 18,5 L18,13 C18,15.7614237 15.7614237,18 13,18 L5,18 C2.23857625,18 3.38176876e-16,15.7614237 0,13 L0,5 L0,5 C-3.38176876e-16,2.23857625 2.23857625,5.07265313e-16 5,0 L5,0 Z M8.52631579,0 L8.52631579,18 L10.4210526,18 L10.4210526,0 L8.52631579,0 Z M5.42105263,1.42105263 L5.42105263,1.42105263 C3.21191363,1.42105263 1.42105263,3.21191363 1.42105263,5.42105263 L1.42105263,5.42105263 L1.42105263,12.5789474 C1.42105263,14.7880864 3.21191363,16.5789474 5.42105263,16.5789474 L5.42105263,16.5789474 L7.10526316,16.5789474 L7.10526316,1.42105263 L5.42105263,1.42105263 Z M14.2105263,11.8421053 C15.2569606,11.8421053 16.1052632,10.9938027 16.1052632,9.94736842 C16.1052632,8.90093416 15.2569606,8.05263158 14.2105263,8.05263158 C13.1640921,8.05263158 12.3157895,8.90093416 12.3157895,9.94736842 C12.3157895,10.9938027 13.1640921,11.8421053 14.2105263,11.8421053 Z M4.26315789,7.57894737 C3.21672363,7.57894737 2.36842105,6.73064479 2.36842105,5.68421053 C2.36842105,4.63777626 3.21672363,3.78947368 4.26315789,3.78947368 C5.30959216,3.78947368 6.15789474,4.63777626 6.15789474,5.68421053 C6.15789474,6.73064479 5.30959216,7.57894737 4.26315789,7.57894737 Z"/>
</svg>
