<svg xmlns="http://www.w3.org/2000/svg" width="18" height="18" viewBox="0 0 18 18">
  <path fill="#DA2530" fill-rule="evenodd" d="M6.13497432,2.26811189 C6.87951596,1.91892935 7.8177314,1.69892255 9,1.69892255 C10.1822686,1.69892255 11.120484,1.91892935 11.8650257,2.26811189 L13.6431208,0.149060661 L13.6431208,0.149060661 C13.8206217,-0.0624766709 14.1359995,-0.0900686529 14.3475368,0.0874322442 L14.3475368,0.0874322442 L14.4432924,0.167780695 L14.4432924,0.167780695 C14.6548297,0.345281592 14.6824217,0.66065939 14.5049208,0.872196722 L12.8306284,2.86754065 C14.7272727,4.39059499 14.7272727,6.86189159 14.7272727,6.86189159 L3.27272727,6.86189159 C3.27272727,6.86189159 3.27272727,4.39059499 5.16937157,2.86754065 L3.49507922,0.872196722 L3.49507922,0.872196722 C3.31757832,0.66065939 3.3451703,0.345281592 3.55670764,0.167780695 L3.55670764,0.167780695 L3.65246319,0.0874322442 C3.86400052,-0.0900686529 4.17937832,-0.0624766709 4.35687922,0.149060661 L6.13497432,2.26811189 Z M0,8.87641486 C0,8.32055501 0.443864822,7.86994157 1,7.86994157 C1.55228475,7.86994157 2,8.32543063 2,8.87641486 L2,13.4903012 C2,14.0461611 1.55613518,14.4967745 1,14.4967745 C0.44771525,14.4967745 0,14.0412854 0,13.4903012 L0,8.87641486 Z M16,8.87641486 C16,8.32055501 16.4438648,7.86994157 17,7.86994157 C17.5522847,7.86994157 18,8.32543063 18,8.87641486 L18,13.4903012 C18,14.0461611 17.5561352,14.4967745 17,14.4967745 C16.4477153,14.4967745 16,14.0412854 16,13.4903012 L16,8.87641486 Z M3,7.86994157 L15,7.86994157 L15,15.958859 C15,17.0587796 14.0980496,17.9504414 12.9914698,17.9504414 L5.0085302,17.9504414 C3.8992496,17.9504414 3,17.0558643 3,15.958859 L3,7.86994157 Z M7.40183356,5.14367768 C7.87479862,5.14367768 8.25821257,4.75779964 8.25821257,4.28179495 C8.25821257,3.80579027 7.87479862,3.41991223 7.40183356,3.41991223 C6.92886849,3.41991223 6.54545455,3.80579027 6.54545455,4.28179495 C6.54545455,4.75779964 6.92886849,5.14367768 7.40183356,5.14367768 Z M10.6745608,5.14367768 C11.1475259,5.14367768 11.5309398,4.75779964 11.5309398,4.28179495 C11.5309398,3.80579027 11.1475259,3.41991223 10.6745608,3.41991223 C10.2015958,3.41991223 9.81818182,3.80579027 9.81818182,4.28179495 C9.81818182,4.75779964 10.2015958,5.14367768 10.6745608,5.14367768 Z"/>
</svg>
