<svg xmlns="http://www.w3.org/2000/svg" width="24" height="24" viewBox="0 0 24 24">
  <path fill="#FFF" d="M8.6569075,0.624027487 C8.1284136,1.12755636 7.7064861,1.7425794 7.4285714,2.43153007 L7.4285714,1.8730885 L1.1428571,6.59407038 L1.1428571,21.9372614 L7.4285714,17.2162796 L7.4285714,6.62804971 C8.2631176,9.61234249 10.3505308,13.4500258 12.1982465,14.6857887 C13.5264362,13.7974877 14.9784809,11.5647389 16,9.27094237 L16,22.5105235 L22.8571429,17.7895417 L22.8571429,2.44635058 L17.0107737,6.47143851 C17.1569089,5.92516699 17.2592782,5.41017378 17.3084351,4.94832783 L22.4173795,1.28737264 C22.8662458,0.965725091 23.490972,1.06871508 23.8127444,1.51740722 C23.934514,1.68720767 24,1.89087929 24,2.09980162 L24,18.497689 L16.5826205,23.812817 C16.2343298,24.0623943 15.7656702,24.0623943 15.4173795,23.812817 L8,18.497689 L1.5826205,23.0962395 C1.1337542,23.417887 0.509028,23.314897 0.1872556,22.8662049 C0.065486,22.6964044 0,22.4927327 0,22.2838104 L0,5.88592309 L7.4173795,0.570795032 C7.7656702,0.321217716 8.2343298,0.321217716 8.5826205,0.570795032 L8.6569075,0.624027487 Z M12.1982465,13.495049 C10.1895937,12.1109415 7.8461655,6.98271961 7.8461655,4.49834968 C7.8461655,2.01397975 9.7946585,0 12.1982465,0 C14.6018344,0 16.5503275,2.01397975 16.5503275,4.49834968 C16.5503275,6.98271961 14.2068992,12.1109415 12.1982465,13.495049 Z M12.1982465,7.14443772 C13.7278024,7.14443772 14.9677526,5.90050905 14.9677526,4.36604528 C14.9677526,2.8315815 13.7278024,1.58765283 12.1982465,1.58765283 C10.6686905,1.58765283 9.4287404,2.8315815 9.4287404,4.36604528 C9.4287404,5.90050905 10.6686905,7.14443772 12.1982465,7.14443772 Z"/>
</svg>
