<svg xmlns="http://www.w3.org/2000/svg" width="18" height="18" viewBox="0 0 18 18">
  <path fill="#DB921C" d="M0.225697233,11.0792372 L4.02876535,12.8035776 C4.09449613,14.1736567 5.22162969,15.2694217 6.60720475,15.2694217 C8.03535542,15.2694217 9.19908907,14.1095507 9.19908907,12.6835653 C9.19908907,12.576225 9.18041556,12.4748481 9.16622368,12.3697441 L11.5676381,10.4890535 C11.7259896,10.5106706 11.8835941,10.5367603 12.047921,10.5367603 C14.014616,10.5367603 15.614563,8.93932862 15.6115752,6.97738736 C15.6115752,5.0147007 14.0131221,3.41875988 12.0464271,3.41875988 C10.0797322,3.41875988 8.47978515,5.0147007 8.47978515,6.97738736 C8.47978515,7.3068623 8.53804653,7.6184472 8.62245083,7.92034165 L7.19430016,10.1715052 C7.00457721,10.1267801 6.80887874,10.0977088 6.6064578,10.0977088 C5.97603983,10.0977088 5.40463017,10.333261 4.95347797,10.7096973 L5.53335155e-13,8.46093622 C0.279051616,3.74134421 4.19824831,0 8.99205423,0 C13.9670053,0 18,4.02943725 18,9 C18,13.9705627 13.9670053,18 8.99205423,18 C4.73339641,18 1.16497626,15.047348 0.225697233,11.0792372 Z M6.74775881,14.0858807 C6.05031253,14.0858807 5.48492061,13.5209876 5.48492061,12.8241565 C5.48492061,12.1273254 6.05031253,11.5624322 6.74775881,11.5624322 C7.44520509,11.5624322 8.01059701,12.1273254 8.01059701,12.8241565 C8.01059701,13.5209876 7.44520509,14.0858807 6.74775881,14.0858807 Z M12.2125542,5.04089958 C13.3410798,5.04089958 14.2595076,5.95776754 14.2602579,7.08529773 C14.2602579,8.21282791 13.3410798,9.13044556 12.2125542,9.13044556 C11.0825278,9.13044556 10.1648504,8.21282791 10.1648504,7.08529773 C10.1648504,5.95776754 11.0825278,5.04089958 12.2125542,5.04089958 Z"/>
</svg>
