<svg xmlns="http://www.w3.org/2000/svg" width="18" height="15" viewBox="0 0 18 15">
  <path fill-rule="evenodd" d="M6.63157895,15.2207384 L6.63157895,2 C7.20063426,2.09426551 7.90009809,2.25923016 8.72997042,2.49489395 C9.97477892,2.84838963 11.3618512,3.20188531 12.5710938,3.94422624 C13.7803363,4.68656716 14.064864,5.78240377 14.1715619,6.73684211 C14.2782597,7.69128044 14.1715619,8.78711705 13.7803363,9.3880597 C13.3891108,9.98900236 12.9623193,10.1657502 12.5355278,10.2364493 C12.1087364,10.3071485 11.575247,10.2541241 10.8639278,9.91830322 L10.8639278,5.28750982 C10.8994938,4.47446976 10.3304385,4.33307148 10.1526087,4.33307148 C9.97477892,4.33307148 9.69025126,4.43912019 9.69025126,5.04006284 L9.69025126,16.2105263 L6.63157895,15.2207384 Z M10.4210526,16.2105263 L10.4210526,14.6191166 L15.1705263,13.0277069 C15.4338929,12.9213765 15.5124894,12.8046731 15.4063158,12.6775968 C15.2470554,12.4869823 14.8336842,12.4866276 14.4968421,12.4866276 C14.16,12.4866276 13.9887382,12.4882375 13.5536842,12.6139404 L10.4210526,13.6642708 L10.4210526,12.0092047 C11.1789335,11.7736431 11.9424423,11.6145021 12.7115789,11.5317818 C13.6294529,11.4330649 14.0668604,11.4639861 15.1705263,11.5954382 C15.9063036,11.6830729 16.6473562,11.9058703 17.3936842,12.2638303 C17.7978947,12.4760182 18,12.709425 18,12.9640505 C18,13.3459889 17.5284211,13.7279272 16.9557895,13.9825527 C16.8405489,14.0337954 16.4842105,14.1735219 16.1189465,14.2929012 L10.4210526,16.2105263 Z M5.68421053,9.57894737 L5.68421053,11.371266 L2.89027654,12.5051819 C2.54772525,12.7246495 2.40856378,12.8953465 2.47279215,13.0172729 C2.5691347,13.2001626 2.84210526,13.2367405 3.14719001,13.2367405 C3.68957784,13.2367405 4.53525135,12.9928876 5.68421053,12.5051819 L5.68421053,14.1511888 C4.42105263,14.3706564 3.33987511,14.3706564 2.44067797,14.1511888 C1.54148082,13.9317212 0.931311329,13.7244463 0.610169492,13.529364 C0.203389831,13.2367405 0,12.944117 0,12.6514936 C0,12.2125584 0.128456735,12.0296688 1.25245317,11.371266 L5.68421053,9.57894737 Z" transform="translate(0 -2)"/>
</svg>
