<svg xmlns="http://www.w3.org/2000/svg" width="18" height="18" viewBox="0 0 18 18">
  <path fill="#71B504" d="M9,18 C4.02943725,18 0,13.9705627 0,9 C0,4.02943725 4.02943725,0 9,0 C13.9705627,0 18,4.02943725 18,9 C18,13.9705627 13.9705627,18 9,18 Z M9,17 C13.418278,17 17,13.418278 17,9 C17,4.581722 13.418278,1 9,1 C4.581722,1 1,4.581722 1,9 C1,13.418278 4.581722,17 9,17 Z M5.655,4.01725 C5.681,3.99125 5.733,3.96525 5.75925,3.939 C6.69625,3.31325 7.7895,3 8.987,3 C10.10625,3 11.1735,3.31325 12.0585,3.86075 C12.13675,3.88675 12.293,4.01725 12.397,4.1215 C11.538,3.1565 8.987,5.21725 8.987,5.21725 C8.102,4.539 7.295,4.0695 6.69625,3.913 C6.17575,3.7825 5.83725,3.887 5.655,4.01725 Z M13.38625,4.9305 C14.3755,6 14.974,7.43475 15,9 C15,10.56525 14.40125,11.974 13.43825,13.0435 C13.7505,11.50425 13.23,10.3825 12.371,8.974 C11.48575,7.56525 10.08025,6.1825 10.08025,6.1825 C11.32975,5.0085 12.371,4.6435 12.579,4.56525 C12.81325,4.56525 13.09975,4.6175 13.308,4.85225 C13.33425,4.8785 13.36025,4.9045 13.38625,4.9305 Z M11.2255,9.574 C11.616,10.0175 12.293,10.852 12.47525,11.113 C13.282,12.261 13.41225,13.0435 13.41225,13.0435 C12.31875,14.24325 10.73125,15 8.987,15 C5.68125,15 3,12.313 3,9 C3,7.40875 3.62475,5.974 4.6135,4.9045 C4.6135,4.9045 4.87375,4.5915 5.29025,4.5915 C5.68075,4.61775 6.09725,4.774 6.46175,5.00875 C6.48775,5.03475 6.48775,5.03475 6.48775,5.03475 C7.26875,5.50425 7.8935,6.1825 7.8935,6.1825 C7.217,6.83475 5.603,8.81725 5.05625,10.14775 C4.24925,12.1825 4.61375,13.0695 4.61375,13.0695 C4.71775,11.94775 6.38375,9.96525 6.9825,9.339 C7.295,8.974 7.8935,8.37375 8.36225,7.90425 C8.7005,7.539 8.987,7.252 8.987,7.252 C9.16925,7.43475 9.3515,7.6175 9.5075,7.77375 C10.2625,8.5305 10.835,9.1305 11.2255,9.574 Z"/>
</svg>
