<svg xmlns="http://www.w3.org/2000/svg" width="15" height="18" viewBox="0 0 15 18">
  <path fill="#DB0CA3" fill-rule="evenodd" d="M7.65725806,17.2866574 C6.28729839,17.2866574 6.04233871,18 4.46370968,18 C2.78528226,18 1.9958721e-16,13.1262202 0,10.0892129 C0,6.01950166 2.56753535,4.37737209 4.46370968,4.37737209 C5.60685484,4.37737209 6.72278226,5.18726857 7.43951613,5.18726857 C8.15625,5.18726857 9.01814516,4.37332632 10.6875,4.37332632 C12.3568548,4.37332632 13.7449597,5.28786818 14.1532258,6.16582836 C12.765121,6.91575268 12.202621,8.32720562 12.202621,9.54963323 C12.202621,10.9854639 12.8921371,12.4030038 14.625,13.2443823 C14.3165323,14.0400338 14.2552344,14.4405221 13.4546371,15.6953545 C12.6540398,16.9501869 11.6974538,18 10.6875,18 C9.36290323,18 9.07258065,17.2866574 7.65725806,17.2866574 Z M7.29435484,4.14469085 C7.29435484,4.14469085 7.23713833,3.60591658 7.36693548,3.0380952 C7.49732961,2.46766224 7.81580532,1.86694191 8.28326613,1.32790193 C8.80597791,0.725150771 9.52630409,0.342936407 10.0887097,0.157288352 C10.6511153,-0.0283597027 10.8870968,0.0018162365 10.8870968,0.0018162365 C10.8870968,0.0018162365 10.9290471,0.559933334 10.8235887,1.12670272 C10.7181303,1.69347211 10.4524242,2.31023752 9.97983871,2.85518683 C9.53807184,3.36459852 9.03833317,3.81095909 8.51008065,3.99836416 C7.92425426,4.20619436 7.29435484,4.14469085 7.29435484,4.14469085 Z"/>
</svg>
