<!--<svg xmlns="http://www.w3.org/2000/svg" width="15" height="15" viewBox="0 0 15 15">
  <path fill="#fff" d="M5.1160748,9.883925 C2.08149242,9.581511 0,8.750593 0,7.5 C0,6.249407 2.08149242,5.418489 5.1160748,5.116075 C5.41848947,2.081492 6.24940708,0 7.5,0 C8.75059292,0 9.5815105,2.081492 9.8839252,5.116075 C12.9185076,5.418489 15,6.249407 15,7.5 C15,8.750593 12.9185076,9.581511 9.8839252,9.883925 C9.5815105,12.918508 8.75059292,15 7.5,15 C6.24940708,15 5.41848947,12.918508 5.1160748,9.883925 Z M7.5,15 C11.6421356,15 15,11.642136 15,7.5 C15,3.357864 11.6421356,0 7.5,0 C3.35786438,0 0,3.357864 0,7.5 C0,11.642136 3.35786438,15 7.5,15 Z"/>
</svg>-->

<svg xmlns="http://www.w3.org/2000/svg"
     xmlns:xlink="http://www.w3.org/1999/xlink"
     viewBox="0 0 128 128"
        >
    <circle cx="64" cy="64" r="64" style="fill: #00ccff;"></circle>

</svg>

