<svg xmlns="http://www.w3.org/2000/svg" width="18" height="18" viewBox="0 0 18 18">
  <defs>
    <linearGradient id="icon_pocketedition-a" x1="50%" x2="50%" y1="0%" y2="100%">
      <stop offset="0%" stop-color="#211F22"/>
      <stop offset="100%" stop-color="#11100D"/>
    </linearGradient>
  </defs>
  <g fill="none" fill-rule="evenodd">
    <polygon fill="url(#icon_pocketedition-a)" points=".947 18 0 10.421 .947 0 17.053 0 18 10.421 17.053 18"/>
    <polygon fill="#6E6360" points=".947 10.421 1.895 .947 16.105 .947 17.053 10.421"/>
    <path fill="#000" d="M5.04950052,11.1259634 L5.04950052,13.7368421 L3.31578947,13.7368421 L3.31578947,6.15789474 L6.03175786,6.15789474 C7.97123379,6.15789474 8.94095721,6.96299569 8.94095721,8.57322176 C8.94095721,9.33429141 8.6627432,9.95000866 8.10630684,10.420392 C7.54987048,10.8907753 6.8064755,11.1259634 5.8760996,11.1259634 L5.04950052,11.1259634 Z M5.04950052,7.46861925 L5.04950052,9.83109447 L5.73117638,9.83109447 C6.65439555,9.83109447 7.11599821,9.43294827 7.11599821,8.63664391 C7.11599821,7.85795691 6.65439555,7.46861925 5.73117638,7.46861925 L5.04950052,7.46861925 Z M14.6842105,13.7368421 L10.0681378,13.7368421 L10.0681378,6.15789474 L14.5070822,6.15789474 L14.5070822,7.54789694 L11.8018488,7.54789694 L11.8018488,9.23386919 L14.3192187,9.23386919 L14.3192187,10.6185862 L11.8018488,10.6185862 L11.8018488,12.3521251 L14.6842105,12.3521251 L14.6842105,13.7368421 Z"/>
    <path fill="#E5DED9" d="M5.04950052,10.6522792 L5.04950052,13.2631579 L3.31578947,13.2631579 L3.31578947,5.68421053 L6.03175786,5.68421053 C7.97123379,5.68421053 8.94095721,6.48931148 8.94095721,8.09953755 C8.94095721,8.8606072 8.6627432,9.47632445 8.10630684,9.94670777 C7.54987048,10.4170911 6.8064755,10.6522792 5.8760996,10.6522792 L5.04950052,10.6522792 Z M5.04950052,6.99493504 L5.04950052,9.35741026 L5.73117638,9.35741026 C6.65439555,9.35741026 7.11599821,8.95926406 7.11599821,8.1629597 C7.11599821,7.3842727 6.65439555,6.99493504 5.73117638,6.99493504 L5.04950052,6.99493504 Z M14.6842105,13.2631579 L10.0681378,13.2631579 L10.0681378,5.68421053 L14.5070822,5.68421053 L14.5070822,7.07421273 L11.8018488,7.07421273 L11.8018488,8.76018498 L14.3192187,8.76018498 L14.3192187,10.144902 L11.8018488,10.144902 L11.8018488,11.8784409 L14.6842105,11.8784409 L14.6842105,13.2631579 Z"/>
  </g>
</svg>
