<svg xmlns="http://www.w3.org/2000/svg" width="21" height="19" viewBox="0 0 21 19">
  <path d="M5.86059524,14.120619 C7.16752381,14.8263333 8.6237381,15.2447857 10.111619,15.3501905 C10.1921429,16.3843333 10.406119,17.4822619 10.8096429,18.5838095 L1.80952381,18.5838095 C0.814285714,18.5838095 0,17.7695238 0,16.7742857 L0,2.22480952 C0,1.22957143 0.814285714,0.415285714 1.80952381,0.415285714 L10.8259286,0.415285714 C10.0252143,2.32207143 8.62131257,6.69540992 8.5,10.5 L10.5,10.5 C10.3280952,11.2156667 10.1473571,12.3911667 10.0894524,13.531619 C8.90964286,13.4266667 7.75742857,13.087381 6.72011905,12.5277857 C6.27995238,12.2907381 5.73121429,12.4545 5.49416667,12.8946667 C5.25711905,13.3348333 5.42088095,13.8840238 5.86059524,14.120619 Z M18.9056667,0.415285714 C19.9009048,0.415285714 20.7151905,1.22957143 20.7142857,2.22480952 L20.7142857,16.7747381 C20.7142857,17.7699762 19.9,18.5842619 18.9047619,18.5842619 L11.6404286,18.5842619 C11.650381,18.4512619 11.6354524,18.3141905 11.5829762,18.1816429 C11.2025238,17.2189762 11.0084524,16.2445476 10.9292857,15.3194286 C12.3805238,15.1710476 13.7910476,14.7290714 15.0581667,14.0079762 C15.4924524,13.7609762 15.6444524,13.208619 15.3974524,12.7743333 C15.1509048,12.3395952 14.5976429,12.1875952 14.1633571,12.4350476 C13.1635952,13.0032381 12.1427143,13.361119 11,13.5 C11.0790159,12.1962381 11.4123492,10.8629048 12,9.5 L9.5,9.5 C9.66452447,8.25821421 9.74856981,6.88807247 10.1460394,5.33212357 C10.7103159,3.12318653 11.6172321,0.822442039 11.7955952,0.415285714 L18.9056667,0.415285714 Z M5.51316667,5.32090476 L5.51316667,6.45185714 C5.51316667,6.88116667 5.8615,7.2295 6.29080952,7.2295 C6.72057143,7.2295 7.06845238,6.88116667 7.06845238,6.45185714 L7.06845238,5.32090476 C7.06845238,4.89114286 6.72011905,4.5432619 6.29080952,4.5432619 C5.8615,4.5432619 5.51316667,4.89159524 5.51316667,5.32090476 Z M15.3893095,6.46588095 L15.3893095,5.33492857 C15.3893095,4.90561905 15.0405238,4.55728571 14.6112143,4.55728571 C14.1814524,4.55728571 13.8335714,4.90561905 13.8335714,5.33492857 L13.8335714,6.46588095 C13.8335714,6.89519048 14.1823571,7.24352381 14.6112143,7.24352381 C15.0405238,7.24352381 15.3893095,6.89519048 15.3893095,6.46588095 Z"/>
</svg>
