<svg xmlns="http://www.w3.org/2000/svg" width="26" height="19" viewBox="0 0 26 19">
  <path fill-rule="evenodd" d="M7.25435343,0 L19.6310821,0 C21.2953726,0 22.9342128,0.969580992 23.2915343,2.16561976 L25.9488056,11.0601295 C26.3061271,12.2561682 24.6672869,13.2257492 22.2883535,13.2257492 L4.59708211,13.2257492 C2.2181487,13.2257492 0.579308439,12.2561682 0.936629934,11.0601295 L3.59390125,2.16561976 C3.95122274,0.969580992 5.59006301,0 7.25435343,0 Z M13.4848887,9.14267783 C14.733634,9.14267783 15.0334526,9.43735487 16.2303589,9.43735487 C17.1429537,9.43735487 17.8399154,9.00368415 18.3081485,8.48532134 C18.7163981,7.96695853 18.6815315,7.80151948 18.7500992,7.47284124 C17.290153,7.12527345 16.5753728,6.53969727 16.3657563,5.94656527 C16.1872944,5.44158865 16.3033756,4.85852695 16.9451793,4.54873826 C16.5519104,4.18605882 15.6866905,3.80826774 14.8573722,3.80826774 C14.028054,3.80826774 13.6203761,4.1445018 13.2468939,4.1445018 C12.8734116,4.1445018 12.3331542,3.80993902 11.7651135,3.80993902 C10.8228846,3.80993902 9.18856039,4.48829169 8.30011208,6.16946201 C7.63711075,7.42402926 9.08991079,9.43735487 10.6065387,9.43735487 C12.0329887,9.43735487 12.2761672,9.14267783 13.4848887,9.14267783 Z M13.1696502,3.71730594 C13.1696502,3.71730594 13.4847147,3.74235702 13.7703489,3.65770541 C14.021663,3.5813732 14.2360679,3.39956546 14.4053298,3.19207628 C14.5714874,2.97011223 14.626541,2.71889666 14.6118782,2.48804505 C14.5936378,2.25719343 14.51759,2.02986599 14.51759,2.02986599 C14.51759,2.02986599 14.4262227,2.01757498 14.2315579,2.09319155 C14.0306435,2.16880811 13.7706238,2.32448837 13.5810341,2.56999577 C13.3955103,2.78955289 13.2617403,3.03423311 13.2041558,3.26657694 C13.1424134,3.49785705 13.1696502,3.71730594 13.1696502,3.71730594 Z M0.904990704,13.2815534 C1.52033927,13.7119741 2.03312975,14.0117314 2.44336212,14.1808252 C2.8535945,14.3499191 3.36638498,14.434466 3.98173355,14.434466 L13.4427178,14.434466 L22.903702,14.325997 C23.4677715,14.325997 23.980562,14.2353329 24.4420734,14.0540049 C24.9035849,13.8726768 25.4163753,13.6151929 25.9804449,13.2815534 L25.9804449,17 C25.9804449,18.1045695 25.0850144,19 23.9804449,19 L2.9049907,19 C1.8004212,19 0.904990704,18.1045695 0.904990704,17 L0.904990704,13.2815534 Z"/>
</svg>
