<?xml version="1.0" encoding="UTF-8"?>
<svg width="19px" height="19px" viewBox="0 0 19 19" version="1.1" xmlns="http://www.w3.org/2000/svg" xmlns:xlink="http://www.w3.org/1999/xlink">
    <!-- Generator: Sketch 50.2 (55047) - http://www.bohemiancoding.com/sketch -->
    <title>ExecRoadmap/Icon/3DS</title>
    <desc>Created with Sketch.</desc>
    <defs></defs>
    <g id="ExecRoadmap/Icon/3DS" stroke="none" stroke-width="1" fill="none" fill-rule="evenodd">
        <path d="M18.2083457,8.38541992 L18.2083457,1.5833457 C18.2083457,0.710496094 17.4982207,0 16.625,0 L2.375,0 C1.5017793,0 0.791654297,0.710496094 0.791654297,1.5833457 L0.791654297,8.38541992 C0.33190625,8.54936914 0,8.984625 0,9.5 C0,10.015375 0.33190625,10.4506309 0.791654297,10.6145801 L0.791654297,17.4166543 C0.791654297,18.2895039 1.5017793,19 2.375,19 L16.625,19 C17.4982207,19 18.2083457,18.2895039 18.2083457,17.4166543 L18.2083457,10.6145801 C18.6680938,10.4506309 19,10.015375 19,9.5 C19,8.984625 18.6680938,8.54936914 18.2083457,8.38541992 Z M3,2.41667643 C3,2.18636573 3.18170765,2 3.4062619,2 L15.5937381,2 C15.8182923,2 16,2.18636573 16,2.41667643 L16,6.58332357 C16,6.81363427 15.8182923,7 15.5937381,7 L3.4062619,7 C3.18170765,7 3,6.81363427 3,6.58332357 L3,2.41667643 Z M5.33320834,15.6666458 L4.66654167,15.6666458 L4.66654167,16.3333229 C4.66654167,16.7018172 4.36836349,17 3.999875,17 C3.63138652,17 3.33320834,16.7018172 3.33320834,16.3333229 L3.33320834,15.6666458 L2.66666667,15.6666458 C2.29817818,15.6666458 2,15.368463 2,14.9999688 C2,14.6314745 2.29817818,14.3332917 2.66666667,14.3332917 L3.33333333,14.3332917 L3.33333333,13.6666771 C3.33333333,13.2981828 3.63151152,13 4,13 C4.36848848,13 4.66666667,13.2981828 4.66666667,13.6666771 L4.66666667,14.3333542 L5.33333333,14.3333542 C5.70182182,14.3333542 6,14.631537 6,15.0000312 C5.999875,15.368463 5.70169682,15.6666458 5.33320834,15.6666458 Z M16,17.5714171 C16,17.8083089 15.7987241,18 15.5499873,18 L7.45001266,18 C7.20127593,18 7,17.8083089 7,17.5714171 L7,12.4285829 C7,12.1916911 7.20127593,12 7.45001266,12 L15.5499873,12 C15.7987241,12 16,12.1916911 16,12.4285829 L16,17.5714171 Z" id="Shape" fill="#933EC5" fill-rule="nonzero"></path>
    </g>
</svg>