<svg xmlns="http://www.w3.org/2000/svg" width="33" height="16" viewBox="0 0 33 16">
  <path fill-rule="evenodd" d="M1148.36842,8388.88557 L1148.36842,8374 C1149.0007,8374.10614 1149.77789,8374.29187 1150.69997,8374.55721 C1152.08309,8374.95522 1153.62428,8375.35323 1154.96788,8376.18905 C1156.31148,8377.02488 1156.62763,8378.25871 1156.74618,8379.33333 C1156.86473,8380.40796 1156.74618,8381.64179 1156.31148,8382.31841 C1155.87679,8382.99502 1155.40258,8383.19403 1154.92836,8383.27363 C1154.45415,8383.35323 1153.86139,8383.29353 1153.07103,8382.91542 L1153.07103,8377.70149 C1153.11055,8376.78607 1152.47826,8376.62687 1152.28068,8376.62687 C1152.08309,8376.62687 1151.76695,8376.74627 1151.76695,8377.42289 L1151.76695,8390 L1148.36842,8388.88557 Z M1152.57895,8390 L1152.57895,8388.20819 L1157.85614,8386.41638 C1158.14877,8386.29666 1158.2361,8386.16526 1158.11813,8386.02218 C1157.94117,8385.80757 1157.48187,8385.80717 1157.1076,8385.80717 C1156.73333,8385.80717 1156.54304,8385.80898 1156.05965,8385.95051 L1152.57895,8387.1331 L1152.57895,8385.26962 C1153.42104,8385.0044 1154.26938,8384.82522 1155.12398,8384.73208 C1156.14384,8384.62093 1156.62984,8384.65575 1157.85614,8384.80375 C1158.67367,8384.90242 1159.49706,8385.15328 1160.32632,8385.55631 C1160.77544,8385.79522 1161,8386.05802 1161,8386.34471 C1161,8386.77474 1160.47602,8387.20478 1159.83977,8387.49147 C1159.71172,8387.54916 1159.31579,8387.70648 1158.90994,8387.8409 L1152.57895,8390 Z M1147.31579,8382.53333 L1147.31579,8384.55135 L1144.21142,8385.82806 C1143.83081,8386.07516 1143.67618,8386.26735 1143.74755,8386.40463 C1143.85459,8386.61055 1144.15789,8386.65174 1144.49688,8386.65174 C1145.09953,8386.65174 1146.03917,8386.37718 1147.31579,8385.82806 L1147.31579,8387.68134 C1145.91228,8387.92844 1144.71097,8387.92844 1143.71186,8387.68134 C1142.71276,8387.43423 1142.03479,8387.20086 1141.67797,8386.98121 C1141.22599,8386.65174 1141,8386.32227 1141,8385.99279 C1141,8385.49858 1141.14273,8385.29266 1142.39161,8384.55135 L1147.31579,8382.53333 Z M1172.78661,8378.81869 C1173.40958,8379.38587 1173.72106,8380.17852 1173.72106,8381.19665 L1173.72106,8381.30823 C1173.72106,8382.07067 1173.48629,8382.69828 1173.01674,8383.19107 C1172.50534,8383.73036 1171.7987,8384 1170.89679,8384 L1159,8384 L1159,8382.93305 L1170.1855,8382.93305 C1170.6411,8382.93305 1170.98977,8382.78196 1171.23152,8382.47978 C1171.45932,8382.19154 1171.57322,8381.80103 1171.57322,8381.30823 L1171.57322,8381.19665 C1171.57322,8380.74105 1171.49419,8380.36216 1171.33612,8380.05997 C1171.10832,8379.60902 1170.72478,8379.38122 1170.1855,8379.37657 L1159,8379.37657 L1159,8378.30962 L1170.1855,8378.30962 C1170.6411,8378.30962 1170.98977,8378.15621 1171.23152,8377.84937 C1171.45932,8377.56578 1171.57322,8377.17992 1171.57322,8376.69177 C1171.57322,8376.19897 1171.45932,8375.81079 1171.23152,8375.5272 C1170.98977,8375.22036 1170.6411,8375.06695 1170.1855,8375.06695 L1159,8375.06695 L1159,8374 L1170.89679,8374 C1171.808,8374 1172.51464,8374.25802 1173.01674,8374.77406 C1173.48629,8375.25756 1173.72106,8375.89679 1173.72106,8376.69177 C1173.72106,8377.58903 1173.40958,8378.298 1172.78661,8378.81869 Z" transform="translate(-1141 -8374)"/>
</svg>
