<svg xmlns="http://www.w3.org/2000/svg" width="34" height="16" viewBox="0 0 34 16">
  <path fill-rule="evenodd" d="M1104.36842,8396.88557 L1104.36842,8382 C1105.0007,8382.10614 1105.77789,8382.29187 1106.69997,8382.55721 C1108.08309,8382.95522 1109.62428,8383.35323 1110.96788,8384.18905 C1112.31148,8385.02488 1112.62763,8386.25871 1112.74618,8387.33333 C1112.86473,8388.40796 1112.74618,8389.64179 1112.31148,8390.31841 C1111.87679,8390.99502 1111.40258,8391.19403 1110.92836,8391.27363 C1110.45415,8391.35323 1109.86139,8391.29353 1109.07103,8390.91542 L1109.07103,8385.70149 C1109.11055,8384.78607 1108.47826,8384.62687 1108.28068,8384.62687 C1108.08309,8384.62687 1107.76695,8384.74627 1107.76695,8385.42289 L1107.76695,8398 L1104.36842,8396.88557 Z M1108.57895,8398 L1108.57895,8396.20819 L1113.85614,8394.41638 C1114.14877,8394.29666 1114.2361,8394.16526 1114.11813,8394.02218 C1113.94117,8393.80757 1113.48187,8393.80717 1113.1076,8393.80717 C1112.73333,8393.80717 1112.54304,8393.80898 1112.05965,8393.95051 L1108.57895,8395.1331 L1108.57895,8393.26962 C1109.42104,8393.0044 1110.26938,8392.82522 1111.12398,8392.73208 C1112.14384,8392.62093 1112.62984,8392.65575 1113.85614,8392.80375 C1114.67367,8392.90242 1115.49706,8393.15328 1116.32632,8393.55631 C1116.77544,8393.79522 1117,8394.05802 1117,8394.34471 C1117,8394.77474 1116.47602,8395.20478 1115.83977,8395.49147 C1115.71172,8395.54916 1115.31579,8395.70648 1114.90994,8395.8409 L1108.57895,8398 Z M1103.31579,8390.53333 L1103.31579,8392.55135 L1100.21142,8393.82806 C1099.83081,8394.07516 1099.67618,8394.26735 1099.74755,8394.40463 C1099.85459,8394.61055 1100.15789,8394.65174 1100.49688,8394.65174 C1101.09953,8394.65174 1102.03917,8394.37718 1103.31579,8393.82806 L1103.31579,8395.68134 C1101.91228,8395.92844 1100.71097,8395.92844 1099.71186,8395.68134 C1098.71276,8395.43423 1098.03479,8395.20086 1097.67797,8394.98121 C1097.22599,8394.65174 1097,8394.32227 1097,8393.99279 C1097,8393.49858 1097.14273,8393.29266 1098.39161,8392.55135 L1103.31579,8390.53333 Z M1114.67929,8391.13032 C1114.19579,8391.13032 1113.90058,8391.00945 1113.79366,8390.7677 C1113.77041,8390.71656 1113.75879,8390.66077 1113.75879,8390.60033 C1113.75879,8390.5213 1113.78203,8390.43762 1113.82852,8390.34929 C1113.91686,8390.19122 1114.07492,8390.04013 1114.30272,8389.89601 L1126.36688,8382.45529 C1126.61328,8382.28327 1126.91081,8382.19727 1127.25949,8382.19727 C1127.81272,8382.19727 1128.08933,8382.53664 1128.08933,8383.2154 L1128.08933,8390.04943 L1130.23717,8390.04943 L1130.23717,8391.13032 L1128.08933,8391.13032 L1128.08933,8392.19727 L1125.93452,8392.19727 L1125.93452,8391.13032 L1114.67929,8391.13032 Z M1116.42964,8389.88904 C1116.3785,8389.91693 1116.35293,8389.94715 1116.35293,8389.97969 C1116.35293,8389.98899 1116.35526,8389.99829 1116.3599,8390.00759 C1116.37385,8390.03548 1116.41569,8390.04943 1116.48543,8390.04943 L1125.94847,8390.04943 L1125.94847,8384.19866 C1125.94847,8384.14287 1125.92522,8384.10568 1125.87873,8384.08708 C1125.86479,8384.08244 1125.85316,8384.08011 1125.84387,8384.08011 C1125.81597,8384.08011 1125.7904,8384.08941 1125.76716,8384.108 L1116.42964,8389.88904 Z" transform="translate(-1097 -8382)"/>
</svg>
