<svg xmlns="http://www.w3.org/2000/svg" width="19" height="19" viewBox="0 0 19 19">
  <path fill="#01A4EF" fill-rule="evenodd" d="M1105.91301,8335.87706 L1107.44324,8331.98193 L1107.44324,8330.79675 L1103.12528,8330.79675 L1103.12528,8328.57496 L1114,8327 L1114,8335.87706 L1105.91301,8335.87706 Z M1103.46948,8335.87706 L1103.12528,8335.87706 L1103.12528,8332.89111 L1104.7644,8332.89111 L1103.46948,8335.87706 Z M1102.53153,8332.89111 L1102.53153,8335.87706 L1095,8335.87706 L1095,8329.75172 L1102.53153,8328.66095 L1102.53153,8330.79675 L1099.3418,8330.79675 L1099.3418,8332.89111 L1102.53153,8332.89111 Z M1105.67975,8336.47081 L1114,8336.47081 L1114,8346 L1103.12528,8344.40368 L1103.12528,8342.4375 L1103.33569,8342.4375 L1105.67975,8336.47081 Z M1103.21199,8336.47081 L1103.12528,8336.67074 L1103.12528,8336.47081 L1103.21199,8336.47081 Z M1102.53153,8338.03986 L1100.62439,8342.4375 L1102.53153,8342.4375 L1102.53153,8344.31652 L1095,8343.21095 L1095,8336.47081 L1102.53153,8336.47081 L1102.53153,8338.03986 Z" transform="translate(-1095 -8327)"/>
</svg>
