<svg xmlns="http://www.w3.org/2000/svg" width="19" height="19" viewBox="0 0 19 19">
  <path fill="#01A4EF" fill-rule="evenodd" d="M1137.06841,8335.87706 C1137.95302,8335.29444 1138.39532,8334.51019 1138.39532,8333.52429 C1138.39532,8332.66381 1138.05168,8331.96164 1137.36438,8331.41776 C1136.67708,8330.87387 1135.75709,8330.60193 1134.60437,8330.60193 C1134.06374,8330.60193 1133.57071,8330.66839 1133.12528,8330.8013 L1133.12528,8328.57496 L1144,8327 L1144,8335.87706 L1137.06841,8335.87706 Z M1131.88963,8335.87706 L1125,8335.87706 L1125,8329.75172 L1132.53153,8328.66095 L1132.53153,8331.03141 C1132.28121,8331.15323 1132.04945,8331.30095 1131.83624,8331.47458 C1131.12188,8332.05635 1130.76471,8332.7964 1130.76471,8333.69476 C1130.76471,8334.61273 1131.13968,8335.34016 1131.88963,8335.87706 Z M1136.5054,8336.47081 L1144,8336.47081 L1144,8346 L1133.12528,8344.40368 L1133.12528,8342.51845 C1133.50246,8342.59978 1133.91161,8342.64044 1134.35272,8342.64044 C1135.7165,8342.64044 1136.77855,8342.3428 1137.53891,8341.7475 C1138.29927,8341.1522 1138.67944,8340.34044 1138.67944,8339.31219 C1138.67944,8338.64654 1138.46162,8338.04719 1138.02597,8337.51413 C1137.65065,8337.05489 1137.1438,8336.70712 1136.5054,8336.47081 Z M1132.53153,8336.49146 C1131.12094,8337.14851 1130.41565,8338.13745 1130.41565,8339.45831 C1130.41565,8340.4162 1130.77688,8341.18602 1131.49936,8341.76779 C1131.80302,8342.01232 1132.14708,8342.20545 1132.53153,8342.3472 L1132.53153,8344.31652 L1125,8343.21095 L1125,8336.47081 L1132.53153,8336.47081 L1132.53153,8336.49146 Z M1135.98438,8333.74347 C1135.98438,8334.46865 1135.51897,8335.02335 1134.58813,8335.40759 C1133.6573,8335.03418 1133.19189,8334.48489 1133.19189,8333.7597 C1133.19189,8333.37547 1133.32583,8333.06023 1133.59372,8332.814 C1133.8616,8332.56776 1134.19848,8332.44464 1134.60437,8332.44464 C1135.02108,8332.44464 1135.35525,8332.56235 1135.6069,8332.79776 C1135.85855,8333.03317 1135.98438,8333.34841 1135.98438,8333.74347 Z M1134.47449,8337.36395 C1135.6705,8337.77525 1136.26849,8338.42466 1136.26849,8339.31219 C1136.26849,8339.75596 1136.11155,8340.11314 1135.79767,8340.38373 C1135.48378,8340.65432 1135.06979,8340.78961 1134.55566,8340.78961 C1134.07942,8340.78961 1133.6749,8340.65161 1133.34207,8340.37561 C1133.00925,8340.09961 1132.84283,8339.75055 1132.84283,8339.32843 C1132.84283,8338.4463 1133.38671,8337.79149 1134.47449,8337.36395 Z" transform="translate(-1125 -8327)"/>
</svg>
